<svg xmlns="http://www.w3.org/2000/svg" width="100.84" height="35" viewBox="0 0 100.84 35"><rect class="svg__rect" x="0" y="0" width="58.92" height="35" fill="#C13B3A"/><rect class="svg__rect" x="56.92" y="0" width="43.92" height="35" fill="#D35B09"/><path class="svg__text" d="M15.70 22L14.22 22L14.22 13.47L15.70 13.47L19.51 19.54L19.51 13.47L20.98 13.47L20.98 22L19.50 22L15.70 15.95L15.70 22ZM27.21 22L25.73 22L25.73 13.47L28.99 13.47Q30.42 13.47 31.26 14.21Q32.10 14.96 32.10 16.18L32.10 16.18Q32.10 17.44 31.28 18.13Q30.45 18.83 28.97 18.83L28.97 18.83L27.21 18.83L27.21 22ZM27.21 14.66L27.21 17.64L28.99 17.64Q29.78 17.64 30.20 17.27Q30.61 16.90 30.61 16.19L30.61 16.19Q30.61 15.50 30.19 15.09Q29.77 14.68 29.03 14.66L29.03 14.66L27.21 14.66ZM37.86 22L36.38 22L36.38 13.47L38.31 13.47L40.77 20.01L43.22 13.47L45.14 13.47L45.14 22L43.66 22L43.66 19.19L43.81 15.43L41.29 22L40.23 22L37.71 15.43L37.86 19.19L37.86 22Z" fill="#FFFFFF"/><path class="svg__text" d="M70.03 20.93L70.03 20.93L71.32 19.40Q71.99 20.27 72.77 20.27L72.77 20.27Q72.77 20.27 72.78 20.27L72.78 20.27Q73.29 20.27 73.56 19.96Q73.83 19.65 73.83 19.05L73.83 19.05L73.83 15.44L70.93 15.44L70.93 13.60L76.19 13.60L76.19 18.91Q76.19 20.54 75.36 21.36Q74.54 22.17 72.95 22.17L72.95 22.17Q72.02 22.17 71.27 21.85Q70.51 21.53 70.03 20.93ZM80.69 21.24L80.69 21.24L81.47 19.49Q82.03 19.86 82.77 20.09Q83.52 20.32 84.24 20.32L84.24 20.32Q85.60 20.32 85.61 19.64L85.61 19.64Q85.61 19.28 85.22 19.11Q84.83 18.93 83.96 18.74L83.96 18.74Q83.01 18.53 82.38 18.30Q81.74 18.06 81.29 17.55Q80.83 17.03 80.83 16.16L80.83 16.16Q80.83 15.39 81.25 14.77Q81.67 14.15 82.51 13.79Q83.34 13.43 84.55 13.43L84.55 13.43Q85.38 13.43 86.18 13.62Q86.99 13.80 87.60 14.17L87.60 14.17L86.87 15.93Q85.67 15.28 84.54 15.28L84.54 15.28Q83.83 15.28 83.51 15.49Q83.18 15.70 83.18 16.04L83.18 16.04Q83.18 16.37 83.57 16.54Q83.95 16.71 84.80 16.89L84.80 16.89Q85.76 17.10 86.39 17.33Q87.02 17.56 87.48 18.07Q87.95 18.58 87.95 19.46L87.95 19.46Q87.95 20.21 87.53 20.83Q87.11 21.44 86.27 21.80Q85.43 22.17 84.23 22.17L84.23 22.17Q83.21 22.17 82.25 21.92Q81.29 21.67 80.69 21.24Z" fill="#FFFFFF" x="69.92"/></svg>