<svg xmlns="http://www.w3.org/2000/svg" width="98.58000000000001" height="35" viewBox="0 0 98.58000000000001 35"><rect class="svg__rect" x="0" y="0" width="56.660000000000004" height="35" fill="#005384"/><rect class="svg__rect" x="54.660000000000004" y="0" width="43.92" height="35" fill="#486B80"/><path class="svg__text" d="M15.70 22L14.22 22L14.22 13.47L15.70 13.47L19.51 19.54L19.51 13.47L20.98 13.47L20.98 22L19.50 22L15.70 15.95L15.70 22ZM27.21 22L25.73 22L25.73 13.47L28.99 13.47Q30.42 13.47 31.26 14.21Q32.10 14.96 32.10 16.18L32.10 16.18Q32.10 17.44 31.28 18.13Q30.45 18.83 28.97 18.83L28.97 18.83L27.21 18.83L27.21 22ZM27.21 14.66L27.21 17.64L28.99 17.64Q29.78 17.64 30.20 17.27Q30.61 16.90 30.61 16.19L30.61 16.19Q30.61 15.50 30.19 15.09Q29.77 14.68 29.03 14.66L29.03 14.66L27.21 14.66ZM37.48 22L35.76 22L38.40 17.70L35.81 13.47L37.53 13.47L39.32 16.55L41.11 13.47L42.82 13.47L40.24 17.70L42.88 22L41.15 22L39.32 18.87L37.48 22Z" fill="#FFFFFF"/><path class="svg__text" d="M67.77 20.93L67.77 20.93L69.06 19.40Q69.73 20.27 70.51 20.27L70.51 20.27Q70.51 20.27 70.52 20.27L70.52 20.27Q71.03 20.27 71.30 19.96Q71.57 19.65 71.57 19.05L71.57 19.05L71.57 15.44L68.67 15.44L68.67 13.60L73.93 13.60L73.93 18.91Q73.93 20.54 73.10 21.36Q72.28 22.17 70.69 22.17L70.69 22.17Q69.76 22.17 69.01 21.85Q68.25 21.53 67.77 20.93ZM78.43 21.24L78.43 21.24L79.21 19.49Q79.77 19.86 80.51 20.09Q81.26 20.32 81.98 20.32L81.98 20.32Q83.34 20.32 83.35 19.64L83.35 19.64Q83.35 19.28 82.96 19.11Q82.57 18.93 81.70 18.74L81.70 18.74Q80.75 18.53 80.12 18.30Q79.48 18.06 79.03 17.55Q78.57 17.03 78.57 16.16L78.57 16.16Q78.57 15.39 78.99 14.77Q79.41 14.15 80.25 13.79Q81.08 13.43 82.29 13.43L82.29 13.43Q83.12 13.43 83.92 13.62Q84.73 13.80 85.34 14.17L85.34 14.17L84.61 15.93Q83.41 15.28 82.28 15.28L82.28 15.28Q81.57 15.28 81.25 15.49Q80.92 15.70 80.92 16.04L80.92 16.04Q80.92 16.37 81.31 16.54Q81.69 16.71 82.54 16.89L82.54 16.89Q83.50 17.10 84.13 17.33Q84.76 17.56 85.22 18.07Q85.69 18.58 85.69 19.46L85.69 19.46Q85.69 20.21 85.27 20.83Q84.85 21.44 84.01 21.80Q83.17 22.17 81.97 22.17L81.97 22.17Q80.95 22.17 79.99 21.92Q79.03 21.67 78.43 21.24Z" fill="#FFFFFF" x="67.66"/></svg>